<svg width="1065" height="585" viewBox="0 0 1065 585" fill="none" xmlns="http://www.w3.org/2000/svg">
<path d="M54.288 70.159C31.569 36.6426 55.5785 -8.6377 96.0692 -8.6377H1166.86V584.449H554.561C459.706 584.449 371.022 537.424 317.8 458.908L54.288 70.159Z" fill="#F9F8FF"/>
<path d="M54.288 70.159C31.569 36.6426 55.5785 -8.6377 96.0692 -8.6377H1166.86V584.449H554.561C459.706 584.449 371.022 537.424 317.8 458.908L54.288 70.159Z" fill="url(#paint0_linear_2117_4347)"/>
<mask id="mask0_2117_4347" style="mask-type:alpha" maskUnits="userSpaceOnUse" x="45" y="-9" width="1122" height="594">
<path d="M54.288 70.159C31.569 36.6426 55.5785 -8.6377 96.0692 -8.6377H1166.86V584.449H554.561C459.706 584.449 371.022 537.424 317.8 458.908L54.288 70.159Z" fill="#F9F8FF"/>
</mask>
<g mask="url(#mask0_2117_4347)">
<ellipse cx="294.142" cy="304.263" rx="294.142" ry="304.263" transform="matrix(0.920144 -0.39158 0.361103 0.932526 319.441 -89.1621)" fill="url(#paint1_linear_2117_4347)" fill-opacity="0.44" style="mix-blend-mode:multiply"/>
<ellipse cx="274.402" cy="243.814" rx="274.402" ry="243.814" transform="matrix(0.244077 -0.969756 0.959148 0.282903 687.564 877.81)" fill="url(#paint2_linear_2117_4347)" fill-opacity="0.42" style="mix-blend-mode:multiply"/>
</g>
<defs>
<linearGradient id="paint0_linear_2117_4347" x1="246.426" y1="-8.63772" x2="1172.83" y2="574.961" gradientUnits="userSpaceOnUse">
<stop stop-color="#FB7200"/>
<stop offset="1" stop-color="#FF9A3E"/>
</linearGradient>
<linearGradient id="paint1_linear_2117_4347" x1="294.142" y1="0" x2="294.142" y2="608.527" gradientUnits="userSpaceOnUse">
<stop stop-color="#C1732B"/>
<stop offset="1" stop-color="#FFF8F0" stop-opacity="0"/>
</linearGradient>
<linearGradient id="paint2_linear_2117_4347" x1="274.402" y1="0" x2="274.402" y2="487.628" gradientUnits="userSpaceOnUse">
<stop stop-color="#684FFF"/>
<stop offset="1" stop-color="#FFF8F0" stop-opacity="0"/>
</linearGradient>
</defs>
</svg>
